<?xml version="1.0" standalone="no"?>
<!DOCTYPE svg PUBLIC "-//W3C//DTD SVG 20010904//EN"
 "http://www.w3.org/TR/2001/REC-SVG-20010904/DTD/svg10.dtd">
<svg version="1.0" xmlns="http://www.w3.org/2000/svg"
 width="900.000000pt" height="600.000000pt" viewBox="0 0 900.000000 600.000000"
 preserveAspectRatio="xMidYMid meet">

<g transform="translate(0.000000,600.000000) scale(0.100000,-0.100000)"
fill="#000000" stroke="none">
<path d="M4800 5420 c-89 -35 -167 -50 -271 -50 -78 0 -259 22 -334 41 -50 13
-85 0 -85 -31 0 -29 -11 -50 -26 -50 -8 0 -14 5 -14 11 0 18 -87 1 -155 -30
-33 -16 -77 -33 -97 -40 -20 -7 -64 -25 -98 -42 -33 -16 -65 -29 -70 -29 -22
0 -60 -25 -60 -39 0 -13 -2 -13 -9 -3 -7 11 -11 11 -23 -1 -7 -8 -24 -17 -35
-21 -13 -4 -20 -13 -17 -20 3 -7 -2 -16 -10 -19 -10 -4 -13 -1 -9 9 10 25 -7
15 -28 -18 -16 -26 -19 -28 -14 -9 7 22 1 20 -86 -26 -52 -27 -121 -60 -154
-73 -33 -13 -67 -29 -76 -37 -8 -7 -21 -13 -27 -13 -7 0 -12 -5 -12 -10 0 -6
12 -8 26 -6 20 4 27 0 31 -14 4 -16 9 -17 31 -9 14 5 31 8 38 5 8 -3 16 -1 19
4 9 14 34 0 29 -15 -4 -10 1 -12 15 -8 12 3 21 9 21 14 0 5 7 9 15 9 18 0 20
20 3 21 -7 0 -4 4 7 8 12 5 23 4 27 -2 3 -6 11 5 16 24 6 22 14 34 25 33 10
-1 17 2 17 6 0 5 8 6 19 3 11 -3 21 2 24 11 4 9 15 16 25 16 11 0 25 6 31 14
7 8 35 20 62 26 28 7 53 18 55 25 6 15 49 29 79 26 16 -1 17 0 6 8 -12 8 -9
11 13 17 16 4 38 16 49 27 14 14 21 16 27 7 4 -7 13 -10 19 -6 5 4 19 -2 31
-14 15 -15 20 -17 20 -5 0 21 28 19 32 -2 2 -10 -2 -29 -9 -43 -18 -38 0 -102
41 -145 19 -19 43 -35 53 -35 10 0 30 -6 45 -14 15 -8 42 -17 60 -21 18 -4 59
-18 91 -32 33 -13 78 -25 101 -26 23 -2 46 -6 52 -9 6 -4 24 -5 40 -3 54 7 55
-9 1 -37 -29 -15 -191 -95 -362 -178 -288 -141 -314 -151 -367 -151 -61 -1
-78 -10 -58 -34 13 -15 -31 -38 -260 -137 -52 -23 -101 -46 -108 -51 -20 -16
-30 1 -62 110 -7 23 -20 43 -29 46 -13 3 -17 -6 -19 -41 -1 -25 -7 -51 -13
-59 -6 -7 -8 -13 -4 -13 4 0 2 -6 -4 -13 -6 -8 -8 -17 -4 -20 3 -4 1 -7 -5 -7
-7 0 -25 15 -41 32 -35 39 -49 33 -24 -10 22 -39 14 -47 -37 -34 -36 9 -42 8
-51 -10 -8 -15 -8 -19 0 -14 6 4 11 2 11 -3 0 -6 -7 -11 -15 -11 -8 0 -15 -5
-15 -11 0 -5 -4 -8 -9 -5 -21 13 -34 -23 -23 -65 10 -40 10 -40 -9 -23 -10 9
-17 19 -14 22 5 5 -25 31 -36 32 -10 0 0 -83 10 -89 5 -4 12 -20 16 -36 6 -29
6 -29 -10 -10 -9 11 -21 32 -27 47 -5 16 -21 31 -39 37 l-29 10 0 -159 c0 -95
5 -170 11 -187 7 -15 12 -39 13 -52 1 -14 7 -26 14 -29 7 -2 19 -10 26 -18 8
-8 17 -14 19 -14 9 0 1 28 -12 44 -18 22 -11 20 46 -8 63 -32 128 -81 94 -71
-13 4 -30 8 -37 9 -8 1 -20 9 -26 18 -7 9 -23 19 -35 23 -18 5 -22 3 -17 -10
4 -9 13 -14 21 -11 8 3 12 2 9 -3 -9 -13 18 -61 33 -58 7 1 18 -13 25 -33 13
-42 57 -66 193 -106 110 -32 207 -36 247 -11 l28 19 -7 95 c-6 83 -5 95 8 90
8 -3 36 6 63 19 44 22 49 23 55 7 5 -15 6 -14 11 4 7 27 188 119 913 463 55
26 190 91 300 145 170 82 693 330 902 426 67 31 85 30 101 -5 10 -23 1 -28
-306 -179 -175 -86 -425 -207 -557 -270 -132 -63 -316 -152 -410 -197 -93 -45
-298 -143 -454 -217 -156 -74 -345 -164 -420 -200 -75 -36 -146 -69 -158 -74
-23 -8 -29 -32 -17 -63 8 -22 13 -21 98 19 41 19 79 35 85 35 5 0 12 -10 14
-22 3 -17 5 -15 6 9 1 29 7 34 84 71 45 22 172 84 282 137 443 215 537 261
705 340 96 46 270 129 385 185 421 204 759 360 780 360 3 0 5 -12 5 -27 -1
-24 -11 -34 -68 -66 -65 -38 -491 -244 -1137 -552 -176 -84 -414 -198 -530
-255 -282 -137 -384 -182 -397 -174 -6 4 -8 2 -5 -3 8 -12 -109 -67 -123 -58
-6 3 -10 1 -10 -5 0 -6 -35 -27 -77 -48 l-78 -38 1 -124 c1 -146 13 -533 22
-705 9 -162 -1 -432 -28 -715 -12 -129 -23 -271 -24 -316 -2 -45 -7 -87 -11
-94 -5 -8 -12 -100 -16 -204 -8 -205 -16 -275 -51 -458 -25 -133 -21 -154 34
-188 87 -53 233 -75 718 -105 330 -21 1207 -31 1361 -16 160 15 273 56 338
121 25 26 31 40 31 76 0 25 -6 60 -14 78 -17 42 -21 64 -51 326 -13 118 -35
305 -49 415 -14 110 -30 297 -36 415 -12 238 -25 436 -40 640 -21 268 23 1264
58 1326 4 7 8 -105 10 -249 1 -144 5 -270 8 -279 12 -41 140 -46 264 -11 77
22 352 137 428 180 l64 35 -5 51 c-8 100 -87 713 -103 797 -8 47 -31 125 -50
173 -81 211 -147 297 -289 379 -44 25 -97 59 -118 76 -20 17 -101 56 -180 87
-185 74 -574 232 -612 249 -16 7 -48 19 -70 26 -22 7 -62 28 -89 47 -26 18
-51 33 -55 33 -3 -1 -40 -14 -81 -30z m99 -177 c-10 -31 -17 -58 -15 -60 2 -3
7 5 11 16 9 28 20 26 20 -3 0 -13 -4 -21 -10 -18 -5 3 -4 -2 4 -11 15 -19 15
-19 -19 -21 -17 -1 -49 -26 -99 -78 -70 -74 -76 -78 -145 -93 -39 -9 -93 -16
-121 -16 -91 1 -224 59 -282 123 -39 44 -113 101 -120 94 -4 -3 -1 -6 5 -6 7
0 12 -5 12 -11 0 -6 -7 -9 -15 -5 -8 3 -15 2 -15 -2 0 -5 -16 -7 -35 -6 -19 2
-37 -2 -41 -8 -4 -7 -3 -8 4 -4 7 4 12 1 12 -6 0 -7 9 -19 20 -26 12 -7 17
-18 13 -27 -5 -14 -8 -14 -25 2 -14 12 -17 13 -13 2 3 -8 15 -20 26 -27 12 -8
19 -9 15 -4 -13 21 21 44 70 48 42 4 51 1 62 -17 8 -11 9 -18 3 -14 -6 3 -11
1 -11 -4 0 -6 8 -11 18 -11 10 0 19 -6 19 -14 0 -17 -27 -10 -44 12 -12 14
-13 14 -13 -3 0 -15 -3 -16 -12 -7 -15 15 -28 15 -28 1 0 -5 5 -7 10 -4 6 4
10 -5 10 -19 0 -14 4 -26 9 -26 4 0 24 -13 42 -30 19 -16 42 -30 51 -30 9 0
18 -4 20 -9 2 -4 37 -4 78 0 41 5 81 7 88 4 6 -2 12 0 12 5 0 6 15 10 33 9 27
0 29 -2 12 -9 -14 -7 -1 -9 43 -7 34 2 62 -1 62 -5 0 -4 -5 -8 -12 -8 -6 0 -8
-3 -5 -7 15 -14 -138 -84 -171 -78 -68 12 -89 19 -117 40 -16 13 -65 35 -108
50 -63 22 -88 38 -130 80 -64 65 -120 155 -115 187 3 20 8 15 32 -30 16 -28
31 -50 33 -48 3 2 0 13 -6 25 -28 54 -31 61 -31 70 0 5 9 7 20 4 15 -4 19 -11
15 -27 -4 -12 -3 -16 2 -10 4 6 23 17 40 25 36 15 49 37 33 53 -5 5 -10 16
-10 23 0 9 6 10 27 2 142 -54 552 -43 748 20 54 17 55 15 34 -46z m126 -23
c-3 -5 -12 -10 -18 -10 -7 0 -6 4 3 10 19 12 23 12 15 0z m-945 -10 c-8 -5
-19 -10 -25 -10 -5 0 -3 5 5 10 8 5 20 10 25 10 6 0 3 -5 -5 -10z m-184 -31
c4 -7 -68 0 -76 8 -2 2 13 3 34 1 20 -1 39 -5 42 -9z m1122 -59 c-7 -10 -14
-18 -15 -16 -6 6 9 36 18 36 5 0 4 -9 -3 -20z m-89 -49 c1 -38 -11 -16 -15 26
-2 29 -1 33 6 18 5 -11 9 -31 9 -44z m-53 37 c4 -6 3 -8 -3 -5 -15 9 -36 -19
-27 -35 5 -10 4 -10 -6 -1 -11 10 -10 16 5 33 21 23 22 24 31 8z m6 -65 c7 -9
7 -13 0 -13 -6 0 -19 -3 -29 -6 -15 -6 -16 -4 -5 7 6 7 13 24 13 39 1 20 2 21
6 5 3 -11 10 -26 15 -32z m-52 -7 c0 -5 -7 -3 -15 4 -8 7 -12 17 -9 22 7 10
24 -9 24 -26z m-34 -53 c-14 -14 -23 4 -13 27 l10 25 5 -23 c2 -13 1 -26 -2
-29z m99 -3 c-10 -11 -22 -17 -28 -13 -5 3 1 12 14 19 33 18 35 17 14 -6z
m-1595 -54 c0 -2 -9 -6 -20 -9 -11 -3 -20 -1 -20 4 0 5 9 9 20 9 11 0 20 -2
20 -4z m1475 -12 c-21 -15 -145 -57 -152 -50 -2 2 22 14 54 26 32 13 62 27 68
32 5 4 18 8 30 8 20 -1 20 -1 0 -16z m484 -20 c2 -2 -93 -50 -210 -107 -118
-58 -299 -146 -404 -197 -632 -308 -1144 -553 -1195 -571 l-25 -9 23 19 c12
11 28 22 35 24 9 4 8 8 -3 16 -19 14 -127 14 -135 1 -3 -5 -15 -10 -27 -10
-11 0 49 35 133 77 154 78 215 95 247 70 11 -9 17 2 13 26 -3 22 86 76 269
163 113 54 306 145 430 204 388 184 446 210 454 202 3 -3 6 0 6 6 0 7 14 10
34 8 24 -1 32 2 29 10 -3 8 5 11 24 9 15 -2 33 0 38 4 6 4 37 16 70 26 33 10
74 24 90 31 25 12 90 10 104 -2z m105 -23 c3 -5 16 -7 29 -3 20 5 21 4 8 -11
-12 -15 -10 -17 18 -17 69 0 61 -4 -354 -206 -967 -468 -1465 -707 -1571 -752
l-72 -30 -18 35 -19 35 30 24 c33 26 586 296 1125 549 190 89 383 182 430 205
106 54 373 179 382 180 4 0 9 -4 12 -9z m-797 -97 c26 -16 37 -18 28 -4 -8 13
8 13 21 0 6 -6 25 -2 53 11 25 11 49 18 55 16 6 -2 -63 -40 -154 -84 -91 -45
-273 -134 -405 -198 -234 -114 -384 -185 -391 -185 -2 0 -4 7 -4 16 0 8 -3 13
-7 11 -5 -3 -8 11 -7 31 0 21 -4 43 -9 49 -6 9 -2 16 14 22 13 5 179 84 369
174 366 175 377 179 437 141z m973 15 c0 -8 5 -8 15 1 10 9 15 9 15 1 0 -6 7
-11 15 -11 8 0 15 -7 15 -15 0 -9 7 -13 18 -9 66 18 -1067 -531 -2137 -1037
-35 -16 -65 -28 -67 -26 -3 2 0 17 6 32 9 22 13 25 25 15 8 -7 21 -10 29 -7
12 5 13 13 6 38 -8 26 -6 35 8 45 34 26 610 305 1317 639 143 68 364 173 490
233 127 61 233 111 238 111 4 1 7 -4 7 -10z m301 -390 c-9 -25 -222 -132 -911
-459 -124 -59 -389 -186 -590 -282 -565 -271 -583 -279 -597 -274 -18 7 -13
37 9 53 21 16 248 129 498 248 107 51 290 139 405 195 116 56 298 144 405 195
107 51 276 132 375 180 294 143 410 194 413 180 2 -6 -1 -23 -7 -36z m-2127
-21 c7 -5 6 -8 -3 -8 -9 0 -12 -8 -9 -24 3 -15 0 -27 -8 -30 -10 -4 -14 3 -14
22 0 39 12 80 18 62 3 -8 10 -18 16 -22z m-69 -17 c0 -22 -3 -37 -7 -34 -5 2
-8 20 -8 39 0 19 3 34 8 34 4 0 7 -18 7 -39z m-45 4 c0 -8 -7 -15 -15 -15 -8
0 -15 -4 -15 -9 0 -20 21 -66 35 -77 12 -9 -17 -25 -136 -80 -84 -38 -155 -70
-160 -72 -15 -6 -15 33 -1 63 l15 30 -22 -19 c-11 -11 -21 -16 -21 -11 0 4 -6
2 -14 -4 -11 -9 -15 -8 -20 5 -8 20 14 39 64 55 19 6 40 15 45 19 10 8 237
129 243 130 1 0 2 -7 2 -15z m2213 -129 c-5 -24 -18 -34 -87 -67 -45 -21 -92
-45 -106 -54 -14 -8 -140 -70 -280 -136 -140 -67 -304 -145 -365 -174 -578
-277 -889 -425 -892 -425 -3 0 -87 -40 -188 -90 -101 -49 -185 -90 -187 -90
-1 0 -3 12 -3 27 0 24 10 31 100 74 55 25 208 99 340 164 132 65 341 166 465
225 124 59 367 176 540 260 173 84 358 171 410 195 52 23 131 60 175 82 44 23
81 40 82 39 1 0 -1 -14 -4 -30z m-2588 -36 c3 -5 3 -15 -1 -21 -6 -11 -23 6
-24 24 0 10 18 9 25 -3z m2472 -186 c-11 -22 -83 -60 -388 -206 -450 -216
-689 -331 -1074 -512 -159 -76 -344 -163 -410 -195 -121 -58 -168 -69 -123
-29 22 20 147 83 177 90 8 2 22 9 30 15 20 16 503 252 1041 508 107 51 321
154 474 229 154 74 282 134 284 132 2 -3 -3 -17 -11 -32z m-69 -191 c-4 -21
14 -12 -398 -209 -179 -86 -451 -217 -605 -292 -347 -168 -577 -272 -588 -265
-14 8 92 64 448 236 182 87 400 193 485 234 85 41 209 100 275 131 66 31 176
85 245 119 69 34 129 62 133 62 5 1 7 -7 5 -16z m-24 -177 c-3 -7 -58 -38
-122 -69 -64 -31 -175 -83 -247 -118 -71 -34 -175 -83 -230 -109 -55 -26 -176
-85 -270 -130 -429 -207 -625 -296 -625 -285 0 6 287 150 495 248 88 41 347
166 575 276 228 110 418 201 422 201 4 0 5 -6 2 -14z m-1914 -265 c0 -26 -7
-33 -52 -55 -29 -14 -62 -26 -73 -28 -11 -2 -22 -6 -25 -9 -12 -15 -58 -18
-69 -5 -9 11 10 24 101 69 62 31 114 56 116 56 1 1 2 -12 2 -28z m1759 -5 c-2
-2 -15 -9 -29 -15 -24 -11 -24 -11 -6 3 16 13 49 24 35 12z m-149 -71 c0 -5
-230 -115 -239 -114 -6 0 228 119 235 119 2 0 4 -2 4 -5z m-1625 -85 c4 -6 1
-9 -6 -8 -7 2 -14 -3 -15 -9 -1 -7 -2 -17 -3 -21 -2 -12 -68 -42 -75 -35 -17
17 -2 41 37 60 49 25 54 26 62 13z m335 -175 c-7 -9 -15 -13 -19 -10 -3 3 1
10 9 15 21 14 24 12 10 -5z m-264 -130 c-10 -8 -23 -12 -27 -9 -5 3 -9 1 -9
-4 0 -5 -7 -9 -15 -9 -22 0 -19 5 23 26 40 21 59 18 28 -4z m1964 -2104 c6
-58 5 -60 -66 -75 -27 -6 -32 -4 -38 16 -3 13 -6 39 -6 59 0 34 2 37 43 46 23
6 47 10 52 8 6 -1 12 -25 15 -54z m-213 -37 c-3 -3 -12 -4 -19 -1 -8 3 -5 6 6
6 11 1 17 -2 13 -5z"/>
<path d="M4112 5059 c-12 -19 -11 -19 8 -9 11 6 18 15 15 21 -8 12 -8 12 -23
-12z"/>
<path d="M5644 829 c-26 -7 -31 -13 -26 -34 2 -14 8 -25 12 -25 5 0 6 10 3 23
-4 15 -2 19 5 12 5 -5 12 -19 15 -30 3 -13 5 -8 6 13 1 27 3 31 15 20 10 -9
11 -15 2 -20 -8 -6 -8 -8 1 -8 17 0 25 17 18 40 -7 22 -7 22 -51 9z"/>
<path d="M3766 5144 c-8 -21 -8 -21 9 -28 11 -4 15 1 15 19 0 28 -15 33 -24 9z"/>
<path d="M3828 5103 c-14 -9 -28 -26 -30 -37 -4 -19 0 -21 34 -18 29 3 38 9
38 22 0 14 -5 17 -22 13 l-23 -6 24 22 c28 25 17 27 -21 4z"/>
<path d="M3648 5073 c6 -2 18 -2 25 0 6 3 1 5 -13 5 -14 0 -19 -2 -12 -5z"/>
<path d="M3725 5070 c-16 -7 -17 -9 -3 -9 9 -1 20 4 23 9 7 11 7 11 -20 0z"/>
<path d="M3193 4868 c-1 -14 6 -18 33 -18 30 0 34 3 26 17 -13 23 -58 24 -59
1z"/>
<path d="M3530 3645 c0 -9 -12 -20 -26 -25 -14 -6 -22 -14 -19 -20 7 -12 45
-14 46 -2 0 4 3 19 5 35 3 15 2 27 -1 27 -3 0 -5 -7 -5 -15z"/>
<path d="M2780 3612 c0 -18 4 -32 9 -32 5 0 7 12 5 27 -7 39 -14 42 -14 5z"/>
</g>
</svg>
